<?xml version="1.0" encoding="utf-8"?>
<!-- Generator: Adobe Illustrator 19.0.0, SVG Export Plug-In . SVG Version: 6.00 Build 0)  -->
<svg version="1.1" id="Layer_1" xmlns="http://www.w3.org/2000/svg" xmlns:xlink="http://www.w3.org/1999/xlink" x="0px" y="0px"
	 viewBox="-1009.4 1546.2 154.4 154.4" style="enable-background:new -1009.4 1546.2 154.4 154.4;" xml:space="preserve">
<style type="text/css">
	.st0{fill:#FFFFFF;}
	.st1{fill:#222222;}
</style>
<circle class="st0" cx="-932.2" cy="1623.4" r="77.2"/>
<path class="st1" d="M-958.4,1605.8c-4.7,1.6-5.7,5.8-2.2,9.3l38.8,38.8c3.5,3.5,7.8,2.5,9.3-2.2l20.4-60.5c1.6-4.7-0.9-7.2-5.7-5.7
	L-958.4,1605.8z"/>
<rect x="-967" y="1639.8" transform="matrix(0.7071 -0.7071 0.7071 0.7071 -1444.7639 -192.3657)" class="st1" width="24.8" height="16.1"/>
<rect x="-955.5" y="1655.7" transform="matrix(0.7071 -0.7071 0.7071 0.7071 -1449.7211 -180.5073)" class="st1" width="25.5" height="8"/>
<rect x="-979.2" y="1632" transform="matrix(0.7071 -0.7071 0.7071 0.7071 -1440.0013 -204.4483)" class="st1" width="24.8" height="8"/>
</svg>
