<?xml version="1.0" encoding="utf-8"?>
<!-- Generator: Adobe Illustrator 19.0.0, SVG Export Plug-In . SVG Version: 6.00 Build 0)  -->
<svg version="1.1" id="Layer_1" xmlns="http://www.w3.org/2000/svg" xmlns:xlink="http://www.w3.org/1999/xlink" x="0px" y="0px"
	 viewBox="-835 1166.7 52.1 16.1" style="enable-background:new -835 1166.7 52.1 16.1;" xml:space="preserve">
<style type="text/css">
	.st0{fill:#FFFFFF;}
</style>
<g id="XMLID_4_">
	<path id="XMLID_176_" class="st0" d="M-783.2,1176.4c0-0.4-0.3-0.3-0.5-0.2c-0.3,0.2-0.5,0.4-0.8,0.5s-0.6,0.2-0.9,0.3
		c-0.3,0.1-0.7,0.1-1.1,0.1h-0.2c0.4-0.2,0.8-0.4,1.1-0.6c0.3-0.2,0.5-0.4,0.7-0.6c0.2-0.2,0.3-0.5,0.5-0.8c0.1-0.2,0.1-0.5,0.1-0.8
		c0-0.3,0-0.6-0.1-0.8c-0.1-0.2-0.2-0.4-0.4-0.6s-0.4-0.3-0.6-0.3c-0.2-0.1-0.4-0.1-0.7-0.1c-0.3,0-0.6,0.1-0.8,0.2
		c-0.2,0.1-0.4,0.3-0.6,0.5s-0.3,0.5-0.5,0.8c-0.2,0.3-0.3,0.6-0.3,0.9c-0.1,0.3-0.1,0.6-0.2,0.9c0,0.3-0.1,0.6-0.1,0.9
		c-0.1,0.1-0.1,0.2-0.1,0.2c-0.1,0-0.3,0-0.3,0c-0.1,0-0.1-0.1-0.2-0.2c-0.1-0.1-0.1-0.3-0.1-0.5c0-0.3,0-0.5,0-0.8
		c0-0.2,0.1-0.5,0.1-0.8c0.1-0.3,0.1-0.6,0.1-0.8s0-0.5,0-0.8c0.1-0.2,0.1-0.3-0.1-0.4c-0.2-0.1-0.3-0.1-0.5-0.1s-0.3,0.1-0.4,0.2
		c-0.1,0.1-0.2,0.2-0.3,0.4s-0.2,0.3-0.4,0.6c-0.1,0.2-0.3,0.4-0.4,0.6c-0.1,0.2-0.2,0.4-0.3,0.6s-0.2,0.3-0.2,0.3l-0.1-0.1l0,0
		c0-0.1,0-0.1,0-0.2c0.1-0.2,0.1-0.4,0.1-0.6c0-0.1,0.1-0.3,0.1-0.4c0-0.1,0-0.2,0.1-0.4c0-0.1,0-0.3,0-0.4c0-0.2-0.1-0.3-0.2-0.4
		s-0.3-0.1-0.4-0.1c-0.2,0-0.3,0.1-0.5,0.2c-0.2,0.1-0.2,0.2-0.4,0.4c-0.1,0.2-0.2,0.3-0.4,0.6c-0.2,0.3-0.2,0.4-0.4,0.6
		c-0.1,0.2-0.2,0.4-0.3,0.6c-0.1,0.2-0.1,0.3-0.2,0.3l0.3-0.3c0.1-0.3,0.1-0.6,0.2-0.9c0,0,0-0.1,0-0.3c0-0.1,0-0.2,0-0.3
		c0-0.1,0-0.2,0-0.3s0-0.2,0-0.2c0-0.1,0-0.2,0-0.3s0-0.1-0.1-0.2c0,0-0.1-0.1-0.2-0.1c-0.1,0-0.2,0-0.3,0s-0.2,0-0.2,0
		c-0.1,0-0.1,0-0.2,0.1c-0.1,0.1,0,0.2-0.1,0.2c0,0.1-0.1,0.2-0.1,0.3c0,0.1-0.1,0.3-0.1,0.5c0,0.2-0.1,0.4-0.1,0.6
		s-0.1,0.6-0.2,0.9c0,0.1,0,0.2-0.1,0.3l0,0c0,0-0.1,0.8-0.2,1c0,0.1,0,0.2,0,0.4c-0.1,0.1-0.2,0.1-0.2,0.1c-0.1,0-0.2,0.1-0.2,0.1
		c-0.1,0-0.2-0.1-0.2-0.2c0-0.1,0-0.2,0-0.4c0-0.2,0-0.5,0.1-0.8s0.1-0.6,0.2-0.8c0.1-0.2,0-0.5,0-0.7s0.1-0.4,0.1-0.6
		c0-0.1,0-0.2,0-0.3c0-0.1-0.1-0.1-0.1-0.2l-0.1-0.1c0,0-0.1,0-0.2,0h-0.1h-0.1c-0.1,0-0.1,0-0.2,0h-0.1c-0.1,0-0.2-0.1-0.2-0.1
		l-0.1-0.1l-0.1-0.1c-0.1,0-0.1-0.1-0.2-0.1c-0.3,0-0.5,0.1-0.8,0.2c-0.3,0.1-0.6,0.2-0.8,0.4c-0.2,0.2-0.5,0.4-0.7,0.7
		s-0.4,0.6-0.6,0.9c-0.1,0.3-0.2,0.5-0.3,0.8c0,0-0.1,0.7-0.2,0.9c0,0.1,0,0.2,0,0.3l-0.1,0.1c-0.1,0-0.1,0.1-0.2,0.1
		s-0.2,0.1-0.3,0.1s-0.1,0-0.2-0.1c0-0.1-0.1-0.2-0.1-0.4c0-0.3,0-0.6,0.1-0.8c0.1-0.2,0.2-0.6,0.4-0.9s0.3-0.7,0.4-0.9
		c0.1-0.3,0.1-0.5,0.1-0.8c0-0.1,0-0.2-0.1-0.3c0-0.1-0.1-0.2-0.1-0.2s-0.1-0.1-0.2-0.1c-0.1,0-0.1,0-0.2,0c-0.2,0-0.4,0.1-0.6,0.2
		c-0.2,0.1-0.5,0.4-0.8,0.7s-0.6,0.6-0.8,0.9c-0.2,0.2-0.4,0.5-0.5,0.7l-0.1-0.1c0.1-0.2,0.3-0.5,0.5-0.9c0.2-0.4,0.4-0.7,0.5-1
		c0.2-0.4,0.4-0.8,0.5-1.1c0.1-0.3,0.3-0.8,0.5-1.2c0.1-0.4,0.2-0.8,0.3-1.1c0.1-0.4,0.1-0.7,0.1-1c0-0.2,0-0.4,0-0.5
		s-0.1-0.3-0.2-0.4c-0.1-0.1-0.2-0.2-0.3-0.3c-0.1-0.1-0.3-0.1-0.5-0.1c-0.4,0-0.8,0.1-1.1,0.3s-0.6,0.5-0.8,0.9s-0.4,0.8-0.6,1.3
		s-0.3,1-0.4,1.6c-0.1,0.6-0.2,1.1-0.2,1.7c-0.1,0.6-0.1,1.1-0.2,1.6c0,0.2,0,0.4,0,0.6l-0.1,0.1c-0.3,0.2-0.6,0.4-0.9,0.7
		c-0.3,0.2-0.6,0.4-0.9,0.6c-0.3,0.2-0.7,0.3-1,0.4c-0.4,0.1-0.7,0.2-1.2,0.2c-0.3,0-0.6-0.1-0.9-0.2c-0.3-0.1-0.5-0.3-0.7-0.5
		c-0.2-0.2-0.3-0.5-0.4-0.8c-0.1-0.3-0.1-0.7-0.1-1.1c0-0.3,0-0.6,0.1-0.9s0.1-0.7,0.2-1c0.1-0.4,0.2-0.7,0.4-1.1s0.3-0.7,0.5-1
		s0.4-0.6,0.6-0.9c0.2-0.3,0.5-0.5,0.7-0.8c0.2-0.3,0.5-0.4,0.8-0.5c0.3-0.1,0.5-0.2,0.8-0.2c0.2,0,0.4,0,0.6,0.1
		c0.2,0.1,0.3,0.2,0.4,0.3c0.1,0.1,0.2,0.3,0.2,0.4c0,0.1,0.1,0.3,0.1,0.5c0,0.3-0.1,0.6-0.2,0.9c-0.1,0.3-0.2,0.3-0.4,0.5
		c-0.2,0.2-0.4,0.4-0.7,0.5c-0.3,0.1-0.5,0.2-0.8,0.2c-0.1,0-0.2,0-0.2,0s-0.1,0-0.2,0c-0.1,0-0.1,0-0.1,0h-0.1
		c-0.1,0-0.1,0-0.2,0.1c-0.1,0.1-0.1-0.1-0.1,0s0,0.1,0,0.2c0,0.1,0,0.1,0,0.2v0.1v0.1c0,0.2,0.1,0.3,0.3,0.4
		c0.2,0.1,0.4,0.1,0.8,0.1c0.3,0,0.5-0.1,0.8-0.2c0.3-0.1,0.5-0.2,0.8-0.4c0.3-0.2,0.5-0.4,0.7-0.6s0.4-0.5,0.6-0.8
		c0.2-0.3,0.3-0.6,0.4-0.8c0.1-0.2,0.1-0.6,0.1-0.9c0-0.4-0.1-0.8-0.2-1.1c-0.1-0.3-0.5-0.5-0.7-0.7s-0.5-0.4-0.8-0.5
		s-0.6-0.1-0.8-0.1c-0.4,0-0.9,0.1-1.3,0.2c-0.4,0.1-0.8,0.3-1.1,0.6c-0.4,0.3-0.7,0.5-1,0.9c-0.3,0.3-0.6,0.7-0.9,1.1
		c-0.3,0.4-0.5,0.8-0.7,1.2s-0.4,0.9-0.5,1.3c-0.1,0.4-0.3,0.9-0.3,1.3c-0.1,0.4-0.1,0.8-0.1,1.2c0,0.5,0.1,0.9,0.2,1.4l0.7,1.4
		c0.3,0.4,0.7,0.6,1.1,0.8c0.4,0.2,0.9,0.3,1.4,0.3s0.9,0,1.3-0.1c0.4-0.1,0.8-0.2,1.1-0.3s0.6-0.2,0.9-0.4c0.3-0.1,0.5-0.4,0.7-0.6
		c0.1-0.1,0.3-0.3,0.5-0.5c0,0.1,0,0.3,0,0.4c0,0.2,0,0.3,0,0.5s0,0.3,0.1,0.4c0,0.1,0.1,0.2,0.2,0.3c0.1,0.1,0.2,0.1,0.3,0.1
		s0.2,0,0.2-0.1c0.1,0,0.1-0.1,0.2-0.2s0.1-0.2,0.2-0.3c0.1-0.1,0.1-0.3,0.2-0.5c0.2-0.4,0.4-0.7,0.6-1c0.2-0.3,0.4-0.6,0.6-0.9
		c0.2-0.3,0.4-0.5,0.5-0.7s0.3-0.3,0.3-0.3h0.1c0,0,0,0.1-0.1,0.1c0,0.1-0.1,0.2-0.1,0.3c-0.1,0.1-0.1,0.3-0.2,0.4
		c-0.1,0.1-0.1,0.3-0.2,0.5c-0.1,0.3-0.1,0.4-0.1,0.6s-0.1,0.3-0.1,0.4c0,0.2,0,0.4,0.1,0.6s0.1,0.4,0.2,0.6
		c0.1,0.2,0.2,0.3,0.4,0.4s0.4,0.2,0.6,0.2c0.1,0,0.3,0,0.4-0.1c0.1-0.1,0.3-0.1,0.5-0.2c0,0,0,0,0.1,0l0,0h0.1l0,0l0,0l0.4-0.2
		c0,0,0,0.1,0.1,0.1c0.1,0.1,0.3,0.3,0.5,0.3s0.4,0.1,0.5,0.1c0.2,0,0.4,0,0.5-0.1s0.3-0.1,0.5-0.2c0.2-0.1,0.3-0.2,0.5-0.3
		c0.1-0.1,0.3-0.2,0.3-0.3c0.1,0.3,0.3,0.6,0.4,0.7c0.2,0.2,0.4,0.2,0.6,0.2c0.2,0,0.3,0,0.5-0.1l0.4-0.2c0,0.1,0.1,0.1,0.2,0.2
		c0.1,0.1,0.2,0.1,0.4,0.1c0.1,0,0.2,0,0.3-0.1c0.1-0.1,0.2-0.2,0.3-0.3c0.3-0.5,0.5-1,0.7-1.3c0.2-0.4,0.3-0.7,0.4-0.9
		c0.1-0.2,0.2-0.4,0.3-0.5c0.1-0.1,0.1-0.2,0.2-0.3h0.1c-0.1,0.4-0.1,0.7-0.2,1c0,0.1,0,0.3-0.1,0.4c-0.1,0.1-0.1,0.2-0.1,0.4
		s0,0.2,0,0.3c0,0.1,0,0.2,0,0.2c0,0.1,0,0.2,0,0.4c0,0.1,0,0.2,0.1,0.3c0,0.1,0.1,0.2,0.2,0.3s0.2,0.1,0.3,0.1c0.2,0,0.3,0,0.4-0.1
		c0.1-0.1,0.2-0.2,0.3-0.3l1.2-3h0.1c0,0.3-0.1,0.6-0.1,0.8s0,0.5,0,0.8c0,0.3,0,0.5,0,0.7s0.1,0.4,0.1,0.6c0.1,0.2,0.1,0.3,0.2,0.4
		c0.1,0.1,0.2,0.1,0.4,0.1c0.1,0,0.2,0,0.3-0.1l0,0c-0.1,0.2-0.2,0.4-0.3,0.7c-0.1,0.3-0.2,0.5-0.3,0.7c-0.1,0.2-0.2,0.4-0.2,0.6
		c-0.1,0.2-0.1,0.4-0.1,0.5c0,0.3,0,0.5,0.1,0.8c0,0.2,0.1,0.5,0.2,0.7s0.2,0.3,0.4,0.4c0.1,0.1,0.3,0.2,0.6,0.2s0.6-0.1,0.8-0.3
		c0.3-0.2,0.5-0.5,0.7-1c0.2-0.4,0.4-0.9,0.5-1.5s0.2-1.2,0.2-1.9v-0.1c0.3,0.1,0.6,0.1,0.8,0.1s0.3,0.1,0.4,0.1c0.1,0,0.2,0,0.2,0
		h0.1c0.2,0,0.5,0,0.7-0.1s0.5-0.2,0.7-0.3c0.2-0.1,0.4-0.2,0.6-0.4c0.2-0.2,0.3-0.3,0.5-0.5L-783.2,1176.4z M-804.4,1172.7
		c0-0.2,0.1-0.4,0.1-0.6c0-0.2,0.1-0.4,0.1-0.7c0-0.2,0.1-0.5,0.1-0.7s0.1-0.5,0.2-0.7c0.3-0.6,0.5-1.1,0.7-1.4s0.3-0.4,0.4-0.4
		c0.1,0,0.2,0,0.2,0.3c0,0.2,0,0.3-0.2,0.8c-0.2,0.4-0.4,0.9-0.6,1.5c-0.1,0.2-0.2,0.4-0.3,0.6c-0.1,0.3-0.2,0.5-0.3,0.8
		s-0.5,1.1-0.6,1.4 M-797.7,1175.4c0,0.1,0,0.3-0.1,0.5c-0.1,0.2-0.1,0.4-0.2,0.5c-0.1,0.2-0.2,0.3-0.3,0.5
		c-0.1,0.1-0.2,0.2-0.4,0.2c-0.1,0-0.2,0-0.2-0.1s-0.1-0.1-0.1-0.2c0-0.1-0.1-0.2-0.1-0.3s0-0.2,0-0.3c0-0.2,0-0.4,0.1-0.5
		c0-0.2,0.1-0.4,0.2-0.7c0.1-0.3,0.2-0.5,0.3-0.6s0.2-0.3,0.4-0.5c0.1-0.1,0.3-0.2,0.4-0.3c0.2-0.1,0.3-0.1,0.5-0.1L-797.7,1175.4z
		 M-788.6,1178.7c0,0.1,0,0.2,0,0.4s0,0.3,0,0.5c0,0.1,0,0.3,0,0.4c0,0.2,0,0.3,0,0.5s0,0.3,0,0.5s0,0.3-0.1,0.4
		c0,0.1-0.1,0.2-0.1,0.3c0,0.1-0.1,0-0.2,0c-0.1,0-0.1,0-0.2-0.1c-0.1-0.1-0.1-0.1-0.1-0.2s-0.1-0.1-0.1-0.2c0-0.1,0-0.1,0-0.2
		s0-0.1,0-0.2c0-0.1,0.1-0.3,0.1-0.4c0-0.2,0.1-0.3,0.1-0.5c0.1-0.2,0.1-0.4,0.2-0.5c0.1-0.2,0.1-0.4,0.2-0.5
		c0.1-0.2,0.1-0.3,0.2-0.4C-788.5,1178.5-788.5,1178.6-788.6,1178.7z M-787.2,1176.6c0-0.2,0-0.4,0-0.7c0-0.3,0.1-0.5,0.1-0.7
		s0.1-0.5,0.2-0.7c0.1-0.2,0.1-0.3,0.2-0.5c0.1-0.2,0.2-0.2,0.3-0.3s0.2-0.1,0.4-0.1c0.1,0,0.2,0,0.3,0.1c0.1,0.1,0.1,0.2,0.2,0.3
		c0,0.1,0,0.2,0,0.3s0,0.2,0,0.3c0,0.2-0.1,0.4-0.2,0.7c-0.3,0.3-0.4,0.4-0.4,0.4c-0.1,0.2-0.3,0.3-0.4,0.4
		C-786.7,1176.3-786.9,1176.5-787.2,1176.6z"/>
	<path id="XMLID_188_" class="st0" d="M-814.3,1176.7c-0.3,0.1-0.2,0.1-0.5,0.3c-0.1,0.1-0.2,0.1-0.3,0.2c-0.1,0-0.1,0.1-0.3,0
		c-0.1,0-0.1,0-0.2-0.1c-0.1-0.1-0.1-0.1-0.2-0.2c0.4-0.3,0.5-0.4,0.9-0.8c0.2-0.2,0.6-0.5,0.8-0.7l0.1-0.1
		c-0.1-0.3-0.1-0.6-0.1-0.9c0-0.4,0-0.8,0.1-1.2c0-0.2,0.1-0.3,0.1-0.5c-0.1,0-0.2-0.1-0.4-0.2c-0.2-0.1-0.4-0.1-0.6-0.1
		c-0.3,0-0.5,0-0.7,0.1c-0.2,0.1-0.4,0.2-0.6,0.4c-0.2,0.2-0.3,0.3-0.5,0.6c-0.1,0.2-0.2,0.4-0.3,0.6s-0.2,0.5-0.3,0.8
		s-0.1,0.6-0.1,0.8c0,0.1,0,0.2,0,0.3l0.1,0.4c-0.2,0.1-0.4,0.2-0.4,0.2c0,0.1-0.2,0.1-0.3,0.2c-0.1,0-0.1,0-0.3,0
		c-0.1,0-0.3,0-0.4-0.1c-0.1-0.1-0.2-0.1-0.3-0.2c0-0.1,0-0.1,0-0.3c0-0.1-0.1-0.3-0.1-0.5c0-0.1,0-0.2,0-0.3c0-0.1,0-0.2,0-0.3
		s0-0.2,0-0.3c0-0.1,0-0.2,0-0.3c0-0.2,0-0.5,0-0.7c0-0.3,0-0.9,0.1-0.9c0.3,0,0.2,0,0.5,0h2c0.1,0,0.2,0,0.3-0.1
		c0.1-0.1,0.2-0.2,0.2-0.3c0.1-0.1,0.2-0.2,0.1-0.3c0-0.1,0-0.4,0-0.4c-0.1,0-0.2,0-0.3,0s-0.2,0-0.3,0s-0.2,0-0.4,0
		c-0.1,0-0.2,0-0.3,0s-0.2,0-0.3,0s-0.3,0-0.3,0c0.1-0.2,0.2-0.2,0.3-0.4c0.1-0.2,0.3-0.4,0.4-0.6c0.1-0.2,0.2-0.4,0.3-0.7
		c0.1-0.2,0.1-0.4,0.1-0.6s0-0.5,0-0.7c0-0.2-0.2-0.5-0.3-0.6c-0.1-0.2-0.2-0.3-0.4-0.4c-0.2-0.1-0.3-0.1-0.4-0.1
		c-0.3,0-0.5,0.1-0.7,0.3s-0.5,0.5-0.7,0.9s-0.4,0.8-0.5,1.3c-0.3,0.6-0.3,0.8-0.4,1.4c0,0-0.1,0-0.2,0s-0.2,0-0.4,0s-0.3,0-0.4,0
		s-0.3,0-0.4,0c-0.1,0-0.2,0-0.3,0.1c0,0-0.2,0.3-0.2,0.4v0.1c0,0.1,0,0.1,0,0.2l0.1,0.1c0.1,0,0.1,0.1,0.2,0.1c0.2,0,0.4,0,0.5,0.1
		c0.1,0,0.2,0,0.3,0s0.1,0,0.2,0s0.2,0,0.3,0c0,0.3-0.1,0.5-0.1,0.8c0,0.3,0,0.5,0,0.8c0,0.4,0,0.7,0.1,1.1
		c-0.2,0.3-0.5,0.6-0.6,0.8c-0.1,0.1-0.2,0.2-0.3,0.3s-0.2,0.2-0.3,0.2s-0.2,0.1-0.3,0.2c-0.1,0.1-0.2,0.1-0.3,0.1s-0.2-0.1-0.2-0.2
		c0-0.1,0-0.2,0-0.4c0-0.2,0-0.5,0.1-0.8s0.1-0.6,0.2-0.8c0.1-0.2,0.1-0.6,0.1-0.8s0.1-0.4,0.1-0.6c0-0.1,0-0.2,0-0.3
		c0-0.1-0.1-0.1-0.1-0.2l-0.1-0.1c0,0-0.1,0-0.2,0h-0.1h-0.1c-0.1,0-0.1,0-0.2,0h-0.1c-0.2,0-0.2-0.1-0.2-0.1l-0.1-0.1l-0.1-0.1
		c-0.1,0-0.1-0.1-0.2-0.1c-0.3,0-0.5,0.1-0.8,0.2c-0.3,0.1-0.6,0.2-0.8,0.4c-0.2,0.2-0.5,0.5-0.7,0.7c-0.2,0.3-0.3,0.6-0.5,0.9
		c-0.1,0.2-0.1,0.3-0.2,0.4c0-0.2,0-0.4-0.1-0.5c0-0.3-0.1-0.5-0.2-0.6c-0.2-0.2-0.3-0.3-0.6-0.4c-0.2,0-0.5-0.1-0.9-0.1
		c-0.2,0-0.3,0-0.4,0.1c-0.1,0.1-0.3,0.1-0.3,0.1s-0.2,0.1-0.2,0.2c0,0.1-0.1,0.2-0.1,0.3s0,0.2,0.1,0.2c0,0.1,0.1,0.2,0.2,0.2
		c0,0.1,0.1,0.1,0.3,0.2c0.2,0.1,0.2,0,0.3,0s0.2,0,0.3,0s0.1,0,0.2,0.1c0.1,0,0.1,0.1,0.1,0.2s0,0.2,0,0.3c0,0.1,0,0.2,0,0.3
		s-0.1,0.2-0.1,0.4c-0.4,0.3-0.9,0.5-1.4,0.7c-0.5,0.2-1.1,0.3-1.7,0.3c-0.3,0-0.6-0.1-0.9-0.2c-0.3-0.1-0.6-0.3-0.8-0.5
		c-0.2-0.2-0.5-0.4-0.6-0.8s-0.1-0.6-0.1-1.1c0-0.6,0.1-1.2,0.2-1.8c0.1-0.5,0.3-1,0.5-1.5s0.5-0.9,0.8-1.2s0.6-0.7,1-0.9
		c0.3-0.2,0.7-0.4,1-0.6s0.7-0.2,1-0.2s0.5,0.1,0.6,0.3c0.2,0.2,0.3,0.5,0.3,0.8c0,0.1,0,0.2,0,0.2s-0.1,0.2-0.1,0.3
		c0,0.1,0,0.1-0.1,0.2c0,0.1,0,0.1,0,0.2c0,0.1,0,0.2,0,0.3s0.1,0.2,0.2,0.2s0.1,0.1,0.2,0.2c0.1,0.1,0.1,0.1,0.2,0.1s0.2,0,0.3-0.1
		s0.2-0.2,0.4-0.4c0.1-0.2,0.2-0.3,0.2-0.5s0.1-0.3,0.1-0.5c0-0.4-0.1-0.8-0.2-1.1c-0.1-0.3-0.3-0.6-0.5-0.8
		c-0.2-0.2-0.4-0.3-0.7-0.4c-0.3-0.1-0.6-0.1-0.9-0.1c-0.5,0-1,0.1-1.5,0.3s-1,0.3-1.4,0.6s-0.9,0.7-1.3,1.2s-0.7,0.9-1,1.5
		c-0.3,0.6-0.6,1.1-0.8,1.7s-0.2,1.3-0.2,2c0,0.5,0.1,1,0.2,1.5s0.4,0.9,0.7,1.3c0.3,0.4,0.7,0.6,1.2,0.9s1,0.3,1.5,0.3
		s0.9,0,1.2-0.1s0.6-0.1,0.9-0.2c0.3-0.1,0.5-0.2,0.7-0.4c0.2-0.2,0.4-0.3,0.6-0.4c-0.1,0.4-0.2,0.7-0.3,1.1c-0.1,0.4-0.3,0.7-0.4,1
		c-0.1,0.3-0.3,0.5-0.5,0.7s-0.3,0.3-0.5,0.3s-0.3,0-0.5-0.1c-0.2-0.1-0.3-0.1-0.4-0.2s-0.3-0.1-0.4-0.1c-0.1,0-0.3-0.1-0.4,0
		c-0.1,0-0.2,0-0.3,0.1s-0.1,0.1-0.2,0.2c-0.1,0.1-0.1,0.2-0.1,0.3s0,0.2,0,0.2c0,0.1,0,0.2,0.1,0.3s0.2,0.2,0.3,0.2
		s0.2,0.1,0.4,0.2s0.3,0.1,0.4,0.1s0.3,0.1,0.4,0.1c0.1,0,0.2,0,0.3,0c0.5,0,0.9-0.1,1.3-0.3c0.4-0.2,0.7-0.4,1-0.7s0.5-0.7,0.7-1.1
		c0.2-0.4,0.3-0.9,0.5-1.3c0.1-0.2,0.1-0.5,0.1-0.7c0.1,0.2,0.2,0.3,0.3,0.4s0.3,0.3,0.5,0.3s0.4,0.1,0.5,0.1c0.2,0,0.4,0,0.5-0.1
		c0.1-0.1,0.3-0.1,0.5-0.2s0.3-0.2,0.5-0.3c0.1-0.1,0.3-0.2,0.3-0.3c0.1,0.3,0.3,0.6,0.4,0.7c0.2,0.2,0.4,0.2,0.6,0.2
		s0.4-0.1,0.6-0.2c0.2-0.1,0.4-0.2,0.6-0.4c0.2-0.2,0.4-0.3,0.5-0.5c0.1-0.1,0.3-0.3,0.4-0.5c0,0.2,0.1,0.3,0.2,0.4
		c0.2,0.3,0.3,0.6,0.6,0.8c0.2,0.2,0.5,0.3,0.8,0.3c0.1,0,0.3,0,0.5-0.1c0.2-0.1,0.4-0.1,0.6-0.2c0.1-0.1,0.3-0.1,0.4-0.2l0,0l0,0
		l0,0l0,0l0.3-0.2c0.2,0.2,0.4,0.4,0.7,0.5s0.6,0.2,1,0.2c0.2,0,0.5,0,0.7-0.1c0.2-0.1,0.4-0.1,0.7-0.2c0.2-0.1,0.4-0.2,0.6-0.3
		c0.1,0,0.1-0.1,0.2-0.1l0,0C-813.2,1177.1-814.1,1176.7-814.3,1176.7z M-818.9,1170.9c0.1-0.3,0.2-0.6,0.3-0.9s0.2-0.5,0.3-0.7
		s0.2-0.3,0.3-0.3s0.1,0,0.2,0l0.1,0.1v0.1c0,0.1,0,0.1,0,0.1c0,0.1,0,0.3-0.1,0.5c-0.1,0.2-0.2,0.4-0.3,0.6s-0.2,0.4-0.3,0.7
		s-0.1,0.2-0.2,0.4c-0.1,0-0.1,0-0.2,0s-0.1,0-0.2,0C-818.9,1171.3-818.9,1171.2-818.9,1170.9z M-823.8,1175.4c0,0.1,0,0.3-0.1,0.5
		c-0.1,0.2-0.1,0.4-0.2,0.5c-0.1,0.2-0.2,0.3-0.3,0.5c-0.1,0.1-0.2,0.2-0.4,0.2c-0.1,0-0.2,0-0.2-0.1s-0.1-0.1-0.1-0.2
		c0-0.1-0.1-0.2-0.1-0.3s0-0.2,0-0.3c0-0.2,0-0.4,0.1-0.5c0-0.2,0.1-0.4,0.2-0.7c0.1-0.3,0.2-0.5,0.3-0.6s0.2-0.3,0.4-0.5
		c0.1-0.1,0.3-0.2,0.4-0.3c0.2-0.1,0.3-0.1,0.5-0.1L-823.8,1175.4z M-816,1175.1c0-0.1,0-0.3,0.1-0.5s0.1-0.3,0.2-0.5
		c0-0.1,0.1-0.2,0.1-0.3c0.1-0.1,0.1-0.2,0.2-0.3c0.1-0.1,0.1-0.1,0.3-0.1c0.1,0,0.2,0.1,0.2,0.2c0.1,0.1,0.1,0.3,0.1,0.4
		c0,0.1-0.1,0.3-0.2,0.5c-0.1,0.2-0.3,0.3-0.4,0.5c-0.1,0.1-0.1,0.1-0.3,0.3c0,0.2-0.1,0.4-0.3,0.5
		C-816,1175.7-816,1175.2-816,1175.1z"/>
</g>
</svg>
