<?xml version="1.0" encoding="utf-8"?>
<!-- Generator: Adobe Illustrator 19.0.0, SVG Export Plug-In . SVG Version: 6.00 Build 0)  -->
<svg version="1.1" id="Layer_2" xmlns="http://www.w3.org/2000/svg" xmlns:xlink="http://www.w3.org/1999/xlink" x="0px" y="0px"
	 viewBox="-149 337 312 120" style="enable-background:new -149 337 312 120;" xml:space="preserve">
<style type="text/css">
	.st0{fill:none;stroke:#222222;stroke-width:6;stroke-miterlimit:10;}
</style>
<path id="XMLID_3_" class="st0" d="M11,386.7l-13.3-0.2v-18.4l-1.7-2.5v-6.5l5-1.8l0.8-4.6l-1.7-1.3h-18.2l-0.7,15.4l-1.8,1.7v11
	l2,1.3l-0.2,7.5l-7.1,1.2l-2.8,3.2l-18.1,0.2v10.6h7.8l6.1,4c0,0,4.8,0.2,10.3,0.2c1.6-6.3,4.1-3.6,4.1-3.6v36.7l2,1.8h12.6l1.7-2.5
	v-29.8h4.5v3.3l23.1,0.3v2.2h9l18.9-9.8h11.2l4.1-4.8v-2.8l-4.1-5v-2.2L11,386.7z"/>
</svg>
