<?xml version="1.0" encoding="utf-8"?>
<!-- Generator: Adobe Illustrator 19.0.0, SVG Export Plug-In . SVG Version: 6.00 Build 0)  -->
<svg version="1.1" id="Layer_4" xmlns="http://www.w3.org/2000/svg" xmlns:xlink="http://www.w3.org/1999/xlink" x="0px" y="0px"
	 viewBox="-149 337 312 120" style="enable-background:new -149 337 312 120;" xml:space="preserve">
<style type="text/css">
	.st0{fill:none;stroke:#222222;stroke-width:6;stroke-miterlimit:10;}
</style>
<path id="XMLID_238_" class="st0" d="M7.7,371.4c0,0-14.5-0.6-16.5-4.7c-2.1-1.8-9,0-9,0s-6.4,8-8.2,10s-12.4,6.1-12.4,6.1
	s4.3,8.6,7.8,15.5c11.3,1,12.9,5.9,12.9,5.9s-0.7,21.4,7.5,24.5c7.5-2.5,5-22.9,5-22.9s8.6-10.4,9.8-14.9c4.1,0.2,17.8,9.6,17.8,9.6
	s6.7,2,12.4,1.2c1.8,7.7,3.9,12,9.8,16.1c3.1,0.4,9-0.4,10.4-1.6c1.5-1.2,2.5-7.1,3.7-11.6c-3.1-3-3.7-9.8-5.5-16.1
	C49.7,373,34.8,373,34.8,373L7.7,371.4z"/>
</svg>
