<?xml version="1.0" encoding="utf-8"?>
<!-- Generator: Adobe Illustrator 19.0.0, SVG Export Plug-In . SVG Version: 6.00 Build 0)  -->
<svg version="1.1" id="Layer_2" xmlns="http://www.w3.org/2000/svg" xmlns:xlink="http://www.w3.org/1999/xlink" x="0px" y="0px"
	 viewBox="-149 337 312 120" style="enable-background:new -149 337 312 120;" xml:space="preserve">
<style type="text/css">
	.st0{fill:none;stroke:#222222;stroke-width:6;stroke-miterlimit:10;}
</style>
<path id="XMLID_1_" class="st0" d="M130,354.6l-160.6,0.1l0.3,7.2h-5.5l0.3,4.3H-46l-2.7-2.7l-2.7-1.2l0.7-1.8c0,0,0.8-1,4-0.7
	c1.3-1.7-0.2-7.5-0.2-7.5s-9-1.2-17.2-1c-8.2,0.1-20.2,3.3-20.2,3.3h-10.3l-10.4,4.3c0,0-7.8-0.1-15-0.3c-3,0.1-1.2,3.3-1.2,3.3
	h-17.5v28.2h10.2l3.3,1.3v7h7.3v1.8h19.5l10.5,6.7c9.1-0.3,10.8,5.7,10.8,5.7s6.3,2.7,6.3,5.5c15.1-1.5,14.8,5.5,14.8,5.5
	s3.2,0,14,0c-0.3,10,20.5,6.8,20.5,6.8l39.2,12.3c0,0,71.3,0,114.8,0c-5.8-28.5,20.2-25.5,20.2-25.5l-1.2-47.3L130,354.6z"/>
</svg>
