<?xml version="1.0" encoding="utf-8"?>
<!-- Generator: Adobe Illustrator 19.0.0, SVG Export Plug-In . SVG Version: 6.00 Build 0)  -->
<svg version="1.1" id="Layer_2" xmlns="http://www.w3.org/2000/svg" xmlns:xlink="http://www.w3.org/1999/xlink" x="0px" y="0px"
	 viewBox="-149 337 312 120" style="enable-background:new -149 337 312 120;" xml:space="preserve">
<style type="text/css">
	.st0{fill:none;stroke:#000000;stroke-width:6;stroke-miterlimit:10;}
</style>
<path id="XMLID_3_" class="st0" d="M135.7,349.3l-168.5-0.2l0.1,7.8l-5.6-0.1v4.1l-9.8-0.1l-5.3-2.5l0.1-3.4l4.4,0.1l0.1-7.9
	l-23.5-2.4l-15.3,3.6h-11.1l-11,4.8h-17l-1,3.6h-17.6v64.2l61.8,2v11.5l19.3,9l35.8,0.1v3.9c0,0,138.9,0,148.8,0c-0.3-7.9,7-7,7-7
	h11.4c0,0,0-11,0-16.3c5.8-7.5,14.4-6.5,14.4-6.5l6.4-3.8l-0.9-52L135.7,349.3z"/>
</svg>
