<?xml version="1.0" encoding="utf-8"?>
<!-- Generator: Adobe Illustrator 19.0.0, SVG Export Plug-In . SVG Version: 6.00 Build 0)  -->
<svg version="1.1" id="Foreground" xmlns="http://www.w3.org/2000/svg" xmlns:xlink="http://www.w3.org/1999/xlink" x="0px" y="0px"
	 viewBox="-340 751.4 87.3 43.3" style="enable-background:new -340 751.4 87.3 43.3;" xml:space="preserve">
<style type="text/css">
	.st44252{fill:#222222;}
	.st93474{fill:#FFFFFF;}
</style>
<path class="st44252" d="M-253.3,751.4h-56.5h-1.9h-27.5c-0.4,0-0.7,0.9-0.7,2v39.3c0,1.1,0.3,2,0.7,2h27.5h1.9h56.5
	c0.4,0,0.6-0.9,0.6-2v-39.3C-252.7,752.3-253,751.4-253.3,751.4z"/>
<g>
	<polygon id="XMLID_16_" class="st93474" points="-320,767.7 -320,778.8 -313.4,778.8 -313.4,776.5 -317.6,776.5 -317.6,767.7 	"/>
	<path id="XMLID_18_" class="st93474" d="M-296.1,771.2l2.4-0.5c0,0-0.4-3.6-4-3.6s-4,3-4,3s-0.6,3.1-0.2,5.5c0.4,2.8,2.8,3.1,2.8,3.1
		s3,0.6,3.8-1.3c0.6-0.1,0.5,1.2,0.5,1.2h1.2v-6.1h-3.9v1.8h1.6c0,0-0.1,2.7-1.7,2.7c-1.6,0-1.9-2.1-1.9-2.1v-3.6c0,0,0-2.2,1.9-2.2
		C-296,769.2-296.1,771.2-296.1,771.2z"/>
	<path id="XMLID_24_" class="st93474" d="M-308,767.3c0,0-4,0.1-4,3.9s0,4.5,0,4.5s0,3.3,4,3.3s4-3.3,4-3.3s0-0.7,0-4.5
		S-308,767.3-308,767.3z M-308,777.2c-1.8,0-1.9-2-1.9-2v-3.5c0,0-0.2-2.4,1.8-2.4s1.8,2.4,1.8,2.4v3.5
		C-306.1,775.3-306.1,777.2-308,777.2z"/>
	<rect id="XMLID_17_" x="-288" y="767.5" class="st93474" width="2.6" height="11.3"/>
	<polygon id="XMLID_26_" class="st93474" points="-283.1,767.5 -280.6,767.5 -277.1,773.8 -277.1,767.5 -274.8,767.5 -274.8,778.8 
		-277.1,778.8 -280.6,772.2 -280.6,778.8 -283.1,778.8 	"/>
</g>
</svg>
