<?xml version="1.0" encoding="utf-8"?>
<!-- Generator: Adobe Illustrator 19.0.0, SVG Export Plug-In . SVG Version: 6.00 Build 0)  -->
<svg version="1.1" id="Foreground" xmlns="http://www.w3.org/2000/svg" xmlns:xlink="http://www.w3.org/1999/xlink" x="0px" y="0px"
	 viewBox="-170 375.7 270 43.3" style="enable-background:new -170 375.7 270 43.3;" xml:space="preserve">
<style type="text/css">
	.st4412{fill:#222222;}
	.st456{fill:#FFFFFF;}
</style>
<g id="XMLID_4_">
	<path id="XMLID_12_" class="st4412" d="M-83.3,375.7H-168c-1.1,0-2,0.9-2,2V417c0,1.1,0.9,2,2,2h84.7V375.7z"/>
	<path id="XMLID_22_" class="st4412" d="M98,375.7H-82.7V419H98c1.1,0,2-0.9,2-2v-39.3C100,376.6,99.1,375.7,98,375.7z"/>
</g>
<g id="XMLID_14_">
	<polygon id="XMLID_16_" class="st456" points="-69.4,391.3 -69.4,402.4 -62.8,402.4 -62.8,400.1 -67.1,400.1 -67.1,391.3 	"/>
	<path id="XMLID_18_" class="st456" d="M-45.6,394.8l2.4-0.5c0,0-0.4-3.6-4-3.6s-4,3-4,3s-0.6,3.1-0.2,5.5c0.4,2.8,2.8,3.1,2.8,3.1
		s3,0.6,3.8-1.3c0.6-0.1,0.5,1.2,0.5,1.2h1.2v-6.1H-47v1.8h1.6c0,0-0.1,2.7-1.7,2.7s-1.9-2.1-1.9-2.1v-3.6c0,0,0-2.2,1.9-2.2
		C-45.4,392.8-45.6,394.8-45.6,394.8z"/>
	<path id="XMLID_24_" class="st456" d="M-57.4,390.9c0,0-4,0.1-4,3.9c0,3.8,0,4.5,0,4.5s0,3.3,4,3.3s4-3.3,4-3.3s0-0.7,0-4.5
		C-53.4,391-57.4,390.9-57.4,390.9z M-57.4,400.8c-1.8,0-1.9-2-1.9-2v-3.5c0,0-0.2-2.4,1.8-2.4s1.8,2.4,1.8,2.4v3.5
		C-55.5,398.9-55.6,400.8-57.4,400.8z"/>
	<rect id="XMLID_17_" x="-37.4" y="391.1" class="st456" width="2.6" height="11.3"/>
	<polygon id="XMLID_26_" class="st456" points="-32.5,391.1 -30,391.1 -26.6,397.4 -26.6,391.1 -24.2,391.1 -24.2,402.4 -26.6,402.4 
		-30,395.8 -30,402.4 -32.5,402.4 	"/>
	<polygon id="XMLID_32_" class="st456" points="-10.7,394.6 -11.6,399.6 -12.8,394.6 -13.7,394.6 -13.7,394.6 -14.5,394.6 
		-15.7,399.6 -16.7,394.6 -19.2,394.6 -17.1,402.5 -14.6,402.5 -13.8,398.3 -13.7,398.3 -13.7,398.3 -13.5,398.3 -12.7,402.5 
		-10.2,402.5 -8.1,394.6 	"/>
	<rect id="XMLID_29_" x="-7.2" y="391.8" class="st456" width="2.6" height="2"/>
	<rect id="XMLID_33_" x="-7.1" y="394.6" class="st456" width="2.4" height="7.8"/>
	<path id="XMLID_38_" class="st456" d="M-2.5,393l2.2-0.5v2.4h1.8v1.8h-1.8v3.3c0,0,0,0.7,0.5,0.7s1.4,0,1.4,0v1.8h-1.8
		c0,0-2.1-0.4-2.1-2.1l-0.1-3.7h-1.1v-1.8h1"/>
	<path id="XMLID_40_" class="st456" d="M2.8,391.1h2.3v4.5c0,0,0.5-1,2.2-1s2.1,1.4,2.1,1.4v6.4H7.3v-5.8c0,0-0.1-0.4-1.1-0.4
		s-1.1,1.1-1.1,1.1v5.2H2.8L2.8,391.1L2.8,391.1z"/>
	<polygon id="XMLID_43_" class="st456" points="15.4,391.1 22.7,391.1 22.7,393.3 17.7,393.3 17.7,395.6 21.1,395.6 21.1,397.4 
		17.7,397.4 17.7,400.3 22.7,400.3 22.7,402.5 15.4,402.5 	"/>
	<polygon id="XMLID_48_" class="st456" points="30,391.1 28.1,399.2 26.2,391.1 23.7,391.1 26.7,402.5 28.1,402.5 29.5,402.5 
		32.5,391.1 	"/>
	<polygon id="XMLID_45_" class="st456" points="34,391.1 41.3,391.1 41.3,393.3 36.3,393.3 36.3,395.6 39.7,395.6 39.7,397.4 
		36.3,397.4 36.3,400.3 41.3,400.3 41.3,402.5 34,402.5 	"/>
	<path id="XMLID_47_" class="st456" d="M51,390.9c0,0-4,0.1-4,3.9c0,3.8,0,4.5,0,4.5s0,3.3,4,3.3s4-3.3,4-3.3s0-0.7,0-4.5
		C55,391,51,390.9,51,390.9z M51,400.9c-1.8,0-1.9-2-1.9-2v-3.5c0,0-0.2-2.4,1.8-2.4s1.8,2.4,1.8,2.4v3.5
		C52.8,398.9,52.8,400.9,51,400.9z"/>
	<rect id="XMLID_52_" x="69.3" y="391.8" class="st456" width="2.6" height="2"/>
	<rect id="XMLID_51_" x="69.5" y="394.6" class="st456" width="2.4" height="7.8"/>
	<path id="XMLID_53_" class="st456" d="M57,394.9h2.3v0.9c0,0,0.5-1,2.2-1s2.1,1.4,2.1,1.4v6.4h-2.1v-5.8c0,0-0.1-0.4-1.1-0.4
		s-1.1,1.1-1.1,1.1v5.2H57V394.9z"/>
	<path id="XMLID_54_" class="st456" d="M73.8,394.9h2.3v0.9c0,0,0.5-1,2.2-1s2.1,1.4,2.1,1.4v6.4h-2.1v-5.8c0,0-0.1-0.4-1.1-0.4
		s-1.1,1.1-1.1,1.1v5.2h-2.3L73.8,394.9z"/>
	<rect id="XMLID_55_" x="65.3" y="391.1" class="st456" width="2.3" height="11.3"/>
	<path id="XMLID_62_" class="st456" d="M85.3,400.8c-1.6,0-1.3-1.8-1.3-1.8h4.6c0-4.8-3.2-4.5-3.2-4.5c-3.1,0-3.1,2.5-3.1,2.5
		c0,3.1,0.1,5.4,3.1,5.4c3,0,3.2-2.2,3.2-2.2l-2.1-0.5C86.4,399.8,86.5,400.8,85.3,400.8z M85.3,396c1.4,0,1.3,1.8,1.3,1.8h-1.3H84
		C83.9,397.8,83.9,396,85.3,396z"/>
</g>
<g id="XMLID_3_">
	<g id="XMLID_6_">
		<polygon id="XMLID_2_" class="st456" points="-158.6,389.6 -139.7,389.6 -139.7,392.6 -155.7,392.6 -155.7,393.7 -158.6,393.7 		"/>
		<polygon id="XMLID_5_" class="st456" points="-158.6,395 -139.7,395 -139.7,398.1 -158.6,398.1 		"/>
		<polygon id="XMLID_1_" class="st456" points="-158.6,403.4 -139.7,403.4 -139.7,400.4 -155.7,400.4 -155.7,399.3 -158.6,399.3 		"/>
	</g>
	<g id="XMLID_7_">
		<polygon id="XMLID_10_" class="st456" points="-116.3,389.6 -97.4,389.6 -97.4,392.6 -113.4,392.6 -113.4,393.7 -116.3,393.7 		"/>
		<polygon id="XMLID_9_" class="st456" points="-116.3,395 -97.4,395 -97.4,398.1 -116.3,398.1 		"/>
		<polygon id="XMLID_8_" class="st456" points="-116.3,403.4 -97.4,403.4 -97.5,400.4 -113.5,400.4 -113.4,399.3 -116.3,399.3 		"/>
	</g>
	<polygon id="XMLID_15_" class="st456" points="-121.7,389.6 -128,400.6 -134.3,389.6 -138.2,389.6 -128,406.8 -117.8,389.6 	"/>
	<g id="XMLID_63_">
		<path id="XMLID_71_" class="st456" d="M-93.5,391.5c-0.1,0.2-0.3,0.3-0.5,0.3c-0.3,0-0.5-0.2-0.5-0.5c0-0.3,0.2-0.5,0.5-0.5
			c0.2,0,0.4,0.1,0.5,0.3h0.4c-0.1-0.4-0.5-0.7-0.9-0.7c-0.5,0-0.9,0.4-0.9,0.9s0.4,0.9,0.9,0.9c0.4,0,0.8-0.3,0.9-0.7H-93.5z"/>
		<path id="XMLID_65_" class="st456" d="M-94,389.6c-0.9,0-1.7,0.7-1.7,1.7S-95,393-94,393c0.9,0,1.7-0.7,1.7-1.7S-93,389.6-94,389.6z
			 M-94,392.6c-0.7,0-1.3-0.6-1.3-1.3c0-0.7,0.6-1.3,1.3-1.3s1.3,0.6,1.3,1.3C-92.7,392-93.2,392.6-94,392.6z"/>
	</g>
</g>
</svg>
