<?xml version="1.0" encoding="utf-8"?>
<!-- Generator: Adobe Illustrator 19.0.0, SVG Export Plug-In . SVG Version: 6.00 Build 0)  -->
<svg version="1.1" id="Layer_3" xmlns="http://www.w3.org/2000/svg" xmlns:xlink="http://www.w3.org/1999/xlink" x="0px" y="0px"
	 viewBox="0 0 312 120" style="enable-background:new 0 0 312 120;" xml:space="preserve">
<style type="text/css">
	.st0{fill:none;stroke:#000000;stroke-width:6;stroke-miterlimit:10;}
</style>
<path id="XMLID_4_" class="st0" d="M106.5,43.6L128,43l2.1,1.9l1.4-0.2l0.8-1.7l21,0.1l2.1,1l1.1-0.2l0.9-1.1l2,0.2l-0.3-6.3
	l40.2-0.1l2.2,1.1l0.2,5.6l2.9,0c0,0,1.5,0.5,1,3.6c1.1-0.6,3.3-2.3,7.5-1.1c0.7,0.4,1.3,0.8,1.3,0.8l6.1-0.3c0,0,2.6-1.8,4.3-2.1
	c1.3,0.7,3,0.9,3,0.9l0.3,4.1c0,0,7.2,1.1,10,9.7c0.1,4.2,0.5,7.1,0.5,7.1s3.3,1.5,5,11.7c0,0-0.3,6.8-1,9.2
	c3.7,1.1,5.4,4.9,5.4,4.9s0.8,2-5.3,5.3c-9.3-1-14.8-0.2-14.8-0.2s-10.9-3.4-19.7-12.7c-3-5.8,4.8-10.8,4.8-10.8s-4.3-4.2-4.5-8
	c-1.7,0.4-2.1,0.2-2.1,0.2l-1,0.2l-0.2,3.5l-23.6,0l-2.7,1.7l-17,1l-2.4-1.2l-2,0l-1.2-1.4l-2.6,0.1c0,0-3.9,0.7-4.4,1.6
	c-2.4-0.1-13.3,0.1-13.3,0.1l-4.6-2.3l-2.1,0.2l-0.7,0.6c0,0-3.2,0.4-3.5,1.1c-3.8,0.3-14.8,0.3-14.8,0.3s-4.2-2.3-5.6-2.1
	c0.8,4.3-4.9,10-9.5,9.7c0,2.4-5.9,5.4-5.9,5.4l-15-0.4c0,0-3.3-1.6-4.4-1.7c-0.1-2.5,0-9.1,0.4-9.8c1.3-0.6,6.4-0.9,6.4-0.9
	l0.2-1.7c0,0-6.4-3.2-5-12c4.9-4.5,4.8-12.1,4.8-12.1s-2.6-1.9-3.1-3.7c-0.5-1.7-0.2-5.4-0.2-5.4s1.9-1.5,2.6-2.8
	c5.5,0.1,19.2,0.5,19.2,0.5s1.8,0.2,3.8,2.4c3,0,4.8,2.5,4.8,2.5S104.1,42.1,106.5,43.6z"/>
</svg>
