<?xml version="1.0" encoding="utf-8"?>
<!-- Generator: Adobe Illustrator 19.0.0, SVG Export Plug-In . SVG Version: 6.00 Build 0)  -->
<svg version="1.1" id="Layer_1" xmlns="http://www.w3.org/2000/svg" xmlns:xlink="http://www.w3.org/1999/xlink" x="0px" y="0px"
	 viewBox="-305 397 100 100" style="enable-background:new -305 397 100 100;" xml:space="preserve">
<style type="text/css">
	.st0{display:none;}
	.st1{fill:none;stroke:#212121;stroke-width:10;stroke-miterlimit:10;}
	.st2{fill:#212121;}
</style>
<g id="Layer_2" class="st0">
</g>
<g id="Layer_3" class="st0">
</g>
<g>
	<path id="XMLID_3_" class="st1" d="M-223.9,427c-6-18.1-31.4-18.1-31.4-18.1s-25.5,0-31.4,18.1c-9.8,15.3,2.8,35.7,2.8,35.7
		s-2.9,8.8,10.1,10.4c0,0,5.8,2.3,4.5,9.1c0,0,6,2.5,14.1,2.8c7.9-0.2,14.1-2.8,14.1-2.8c-1.3-6.7,4.5-9.1,4.5-9.1
		c13-1.5,10.1-10.4,10.1-10.4S-214.1,442.3-223.9,427z"/>
	<circle id="XMLID_7_" class="st2" cx="-271.2" cy="453" r="9.8"/>
	<path id="XMLID_9_" class="st2" d="M-250.4,475.1c-2.4,1.6-4.3-1.6-4.9-2.7c-0.6,1-2.5,4.2-4.9,2.7c-2.4-1.6-1.2-4.1-1.2-4.1
		c2.4-7.8,6.1-8.3,6.1-8.3s3.7,0.6,6.1,8.3C-249.2,471.1-248,473.6-250.4,475.1z"/>
	<circle id="XMLID_12_" class="st2" cx="-239.2" cy="453" r="9.8"/>
</g>
</svg>
