<?xml version="1.0" encoding="utf-8"?>
<!-- Generator: Adobe Illustrator 19.0.0, SVG Export Plug-In . SVG Version: 6.00 Build 0)  -->
<svg version="1.1" id="Layer_3" xmlns="http://www.w3.org/2000/svg" xmlns:xlink="http://www.w3.org/1999/xlink" x="0px" y="0px"
	 viewBox="0 0 312 120" style="enable-background:new 0 0 312 120;" xml:space="preserve">
<style type="text/css">
	.st0{fill:none;stroke:#000000;stroke-width:6;stroke-miterlimit:10;}
</style>
<path id="XMLID_5_" class="st0" d="M114.6,42.8c0,0,1.9,1.7,2.4,1.7s10.2-2.1,13.2-1.7c10.7-3.1,29.3-4.2,29.3-4.2
	s21.5-2.8,33.1,13.5c0,0,1.3,0.7,2.5,5.4l33-0.1l5.8-1.2h31.9v9l-69.1,0.6c0.4,3,0.3,4.3-0.4,8.2c2.4,0,3.8,0,3.8,0v4.7h-19.7
	c0,0-24.8-1-37.8-1.9c-13-0.9-39.3-4.3-39.3-4.3l0.5-1.9L122,71c0,0-4.2-5.2-4.5-10.2c-7.1,0.2-23.7,0.5-23.7,0.5s-3.1-0.5-3.3-4.2
	c-3.5-2.4-8.1-2.6-8.1-2.6s-34.6-2.9-40.2-2.6c0-1.7,0-3.1,0-3.1L114.6,42.8z"/>
</svg>
